simulation
nRows=31
nColumns=15
endheader
time  TH_x TH_y TH_z SC_y  SC_z  SC_x  AC_y  AC_z  AC_x  GH_y  GH_z  GH_yy  EL_x  PS_y
0.000000  0.000000  0.000000  0.000000  -23.850143  4.864053  -3.221262  49.858753  7.539489  1.032846  -13.474092  10.259126  57.687920  20.056311  66.217214
0.031313  0.000000  0.000000  0.000000  -23.836461  4.878229  -3.356167  49.888141  7.527853  1.057126  -13.926697  10.310851  58.025797  20.059760  66.300605
0.062626  0.000000  0.000000  0.000000  -23.876098  4.840546  -3.414702  49.954846  7.491089  1.116281  -14.674051  10.528002  58.631861  19.953954  66.336949
0.093939  0.000000  0.000000  0.000000  -23.961606  4.758956  -3.390821  50.052088  7.423980  1.194500  -15.654193  10.902477  59.418451  19.752369  66.338645
0.125253  0.000000  0.000000  0.000000  -24.085537  4.641411  -3.321740  50.169437  7.354371  1.304113  -16.805164  11.426170  60.297906  19.468485  66.318089
0.156566  0.000000  0.000000  0.000000  -24.240445  4.495863  -3.204907  50.299837  7.279711  1.431596  -18.065001  12.090980  61.182564  19.115779  66.287682
0.187879  0.000000  0.000000  0.000000  -24.418880  4.330262  -3.030413  50.436809  7.191704  1.558806  -19.371744  12.888802  61.984765  18.707730  66.259820
0.219192  0.000000  0.000000  0.000000  -24.613397  4.152561  -2.815052  50.571711  7.102608  1.684819  -20.663432  13.811533  62.616848  18.257816  66.246901
0.250505  0.000000  0.000000  0.000000  -24.816548  3.970711  -2.567322  50.696638  7.018366  1.803305  -21.878104  14.851069  62.991151  17.779516  66.261323
0.281818  0.000000  0.000000  0.000000  -25.020884  3.792664  -2.292893  50.803956  6.942799  1.906078  -22.953799  15.999307  63.020014  17.286308  66.315485
0.313131  0.000000  0.000000  0.000000  -25.218958  3.626372  -1.999542  50.885913  6.881422  1.986233  -23.828555  17.248143  62.615775  16.791669  66.421785
0.344444  0.000000  0.000000  0.000000  -25.403566  3.479754  -1.693628  50.934734  6.838857  2.036408  -24.444119  18.589028  61.697450  16.308669  66.592085
0.375758  0.000000  0.000000  0.000000  -25.571446  3.360194  -1.369493  50.940615  6.812622  2.050132  -24.802592  20.006135  60.292786  15.843719  66.829544
0.407071  0.000000  0.000000  0.000000  -25.722546  3.274644  -1.013410  50.891958  6.795828  2.022657  -24.955184  21.477720  58.517992  15.397807  67.130238
0.438384  0.000000  0.000000  0.000000  -25.856907  3.230042  -0.606979  50.777452  6.778201  1.946165  -24.954527  22.981869  56.491847  14.971770  67.490038
0.469697  0.000000  0.000000  0.000000  -25.974570  3.233327  -0.146249  50.584721  6.760946  1.821574  -24.853256  24.496664  54.333126  14.566439  67.904814
0.501010  0.000000  0.000000  0.000000  -26.075662  3.291303  0.387935  50.302895  6.733847  1.639554  -24.703821  26.000400  52.159943  14.182581  68.370115
0.532323  0.000000  0.000000  0.000000  -26.164405  3.404454  0.998744  49.935974  6.698821  1.403241  -24.549990  27.481261  50.058993  13.817711  68.866281
0.563636  0.000000  0.000000  0.000000  -26.250797  3.564336  1.676207  49.509663  6.666954  1.128493  -24.423269  28.941398  48.072613  13.464758  69.352180
0.594949  0.000000  0.000000  0.000000  -26.345271  3.761834  2.411078  49.051506  6.648255  0.831845  -24.354243  30.384016  46.239789  13.116307  69.785060
0.626263  0.000000  0.000000  0.000000  -26.458264  3.987830  3.195249  48.589202  6.651256  0.530168  -24.373492  31.812323  44.599507  12.764939  70.122167
0.657576  0.000000  0.000000  0.000000  -26.600197  4.233215  4.027072  48.150971  6.678951  0.237156  -24.511559  33.229513  43.190701  12.403251  70.320805
0.688889  0.000000  0.000000  0.000000  -26.776167  4.491337  4.900688  47.758071  6.736430  -0.035057  -24.783682  34.635190  42.031398  12.028913  70.361257
0.720202  0.000000  0.000000  0.000000  -26.977893  4.761732  5.828826  47.416533  6.813697  -0.300019  -25.166626  36.019923  41.087083  11.652349  70.281547
0.751515  0.000000  0.000000  0.000000  -27.195026  5.044887  6.739599  47.122965  6.962730  -0.515576  -25.631209  37.372883  40.315116  11.285955  70.128628
0.782828  0.000000  0.000000  0.000000  -27.417216  5.341294  7.691025  46.884496  7.139758  -0.728066  -26.148248  38.683242  39.672857  10.942127  69.949454
0.814141  0.000000  0.000000  0.000000  -27.634113  5.651441  8.653704  46.701155  7.365279  -0.924225  -26.688561  39.940174  39.117667  10.633260  69.790979
0.845455  0.000000  0.000000  0.000000  -27.837295  5.974886  9.620542  46.575181  7.642108  -1.105039  -27.225788  41.134832  38.608080  10.368415  69.690245
0.876768  0.000000  0.000000  0.000000  -28.027366  6.306814  10.587288  46.511059  7.965250  -1.268984  -27.746798  42.267664  38.108133  10.141027  69.637861
0.908081  0.000000  0.000000  0.000000  -28.207575  6.641135  11.543213  46.513079  8.332713  -1.408752  -28.242330  43.341836  37.583471  9.939956  69.610847
0.939394  0.000000  0.000000  0.000000  -28.381170  6.971754  12.486606  46.586196  8.735955  -1.523373  -28.703122  44.360515  36.999740  9.754063  69.586219
